solid OpenSCAD_Model
  facet normal 0 0 -1
    outer loop
      vertex 12.9 -9 0
      vertex 18.55 -2.5 0
      vertex 18.55 -9 0
    endloop
  endfacet
  facet normal -0 0 -1
    outer loop
      vertex 18.55 -2.5 0
      vertex 12.9 -9 0
      vertex 14.55 0 0
    endloop
  endfacet
  facet normal 0 0 -1
    outer loop
      vertex 19.95 -2.5 0
      vertex 25.6 -9 0
      vertex 19.95 -9 0
    endloop
  endfacet
  facet normal 0 0 -1
    outer loop
      vertex 38.5 0 0
      vertex 25.8 45.751 0
      vertex 38.5 55 0
    endloop
  endfacet
  facet normal 0 0 -1
    outer loop
      vertex 23.95 0 0
      vertex 25.8 45.751 0
      vertex 38.5 0 0
    endloop
  endfacet
  facet normal 0 0 -1
    outer loop
      vertex 25.6 -9 0
      vertex 19.95 -2.5 0
      vertex 23.95 0 0
    endloop
  endfacet
  facet normal 0 0 -1
    outer loop
      vertex 14.55 0 0
      vertex 23.95 0 0
      vertex 19.95 -2.5 0
    endloop
  endfacet
  facet normal 0 0 -1
    outer loop
      vertex 14.55 0 0
      vertex 19.95 -2.5 0
      vertex 18.55 -2.5 0
    endloop
  endfacet
  facet normal 0 0 -1
    outer loop
      vertex 23.95 0 0
      vertex 14.55 0 0
      vertex 25.8 45.751 0
    endloop
  endfacet
  facet normal 0 0 -1
    outer loop
      vertex 14.55 0 0
      vertex 12.7 45.751 0
      vertex 25.8 45.751 0
    endloop
  endfacet
  facet normal 0 -0 -1
    outer loop
      vertex 12.7 45.751 0
      vertex 14.55 0 0
      vertex 0 0 0
    endloop
  endfacet
  facet normal -0 0 -1
    outer loop
      vertex 38.5 55 0
      vertex 25.8 45.751 0
      vertex 24.0302 55 0
    endloop
  endfacet
  facet normal 0 0 -1
    outer loop
      vertex 0 55 0
      vertex 12.7 45.751 0
      vertex 0 0 0
    endloop
  endfacet
  facet normal 0 0 -1
    outer loop
      vertex 12.7 45.751 0
      vertex 0 55 0
      vertex 14.4698 55 0
    endloop
  endfacet
  facet normal 0 0 1
    outer loop
      vertex 22.95 0 5
      vertex 18.55 -2.5 5
      vertex 19.95 -2.5 5
    endloop
  endfacet
  facet normal -0 0 1
    outer loop
      vertex 15.55 0 5
      vertex 18.55 -2.5 5
      vertex 22.95 0 5
    endloop
  endfacet
  facet normal 0 0 1
    outer loop
      vertex 13.9 -8 5
      vertex 18.55 -2.5 5
      vertex 15.55 0 5
    endloop
  endfacet
  facet normal 0 0 1
    outer loop
      vertex 18.55 -2.5 5
      vertex 13.9 -8 5
      vertex 18.55 -8 5
    endloop
  endfacet
  facet normal -0 0 1
    outer loop
      vertex 19.95 -2.5 5
      vertex 24.6 -8 5
      vertex 22.95 0 5
    endloop
  endfacet
  facet normal 0 0 1
    outer loop
      vertex 24.6 -8 5
      vertex 19.95 -2.5 5
      vertex 19.95 -8 5
    endloop
  endfacet
  facet normal 0 -1 0
    outer loop
      vertex 18.55 -2.5 0
      vertex 19.95 -2.5 5
      vertex 18.55 -2.5 5
    endloop
  endfacet
  facet normal 0 -1 -0
    outer loop
      vertex 19.95 -2.5 5
      vertex 18.55 -2.5 0
      vertex 19.95 -2.5 0
    endloop
  endfacet
  facet normal -1 0 0
    outer loop
      vertex 19.95 -2.5 0
      vertex 19.95 -8 5
      vertex 19.95 -2.5 5
    endloop
  endfacet
  facet normal -1 0 0
    outer loop
      vertex 19.95 -9 0
      vertex 19.95 -8 5
      vertex 19.95 -2.5 0
    endloop
  endfacet
  facet normal -1 0 0
    outer loop
      vertex 19.95 -9 8.3
      vertex 19.95 -8 5
      vertex 19.95 -9 0
    endloop
  endfacet
  facet normal -1 0 0
    outer loop
      vertex 19.95 -8 5
      vertex 19.95 -9 8.3
      vertex 19.95 -8 8.3
    endloop
  endfacet
  facet normal 0 -1 0
    outer loop
      vertex 19.95 -9 0
      vertex 25.6 -9 8.3
      vertex 19.95 -9 8.3
    endloop
  endfacet
  facet normal 0 -1 -0
    outer loop
      vertex 25.6 -9 8.3
      vertex 19.95 -9 0
      vertex 25.6 -9 0
    endloop
  endfacet
  facet normal 0.983607 0.180327 0
    outer loop
      vertex 25.6 -9 8.3
      vertex 23.95 0 0
      vertex 23.95 0 8.3
    endloop
  endfacet
  facet normal 0.983607 0.180327 0
    outer loop
      vertex 23.95 0 0
      vertex 25.6 -9 8.3
      vertex 25.6 -9 0
    endloop
  endfacet
  facet normal 0 -1 0
    outer loop
      vertex 0 0 8.3
      vertex 2 0 5
      vertex 2 0 8.3
    endloop
  endfacet
  facet normal 0 -1 -0
    outer loop
      vertex 2 0 5
      vertex 0 0 0
      vertex 10 0 5
    endloop
  endfacet
  facet normal 0 -1 0
    outer loop
      vertex 0 0 0
      vertex 2 0 5
      vertex 0 0 8.3
    endloop
  endfacet
  facet normal 0 -1 0
    outer loop
      vertex 10 0 5
      vertex 14.55 0 8.3
      vertex 10 0 8.3
    endloop
  endfacet
  facet normal 0 -1 0
    outer loop
      vertex 10 0 5
      vertex 14.55 0 0
      vertex 14.55 0 8.3
    endloop
  endfacet
  facet normal 0 -1 0
    outer loop
      vertex 14.55 0 0
      vertex 10 0 5
      vertex 0 0 0
    endloop
  endfacet
  facet normal 0 -1 0
    outer loop
      vertex 23.95 0 8.3
      vertex 28.5 0 5
      vertex 28.5 0 8.3
    endloop
  endfacet
  facet normal 0 -1 0
    outer loop
      vertex 38.5 0 0
      vertex 28.5 0 5
      vertex 23.95 0 0
    endloop
  endfacet
  facet normal 0 -1 0
    outer loop
      vertex 23.95 0 0
      vertex 28.5 0 5
      vertex 23.95 0 8.3
    endloop
  endfacet
  facet normal 0 -1 0
    outer loop
      vertex 36.5 0 5
      vertex 38.5 0 8.3
      vertex 36.5 0 8.3
    endloop
  endfacet
  facet normal 0 -1 0
    outer loop
      vertex 36.5 0 5
      vertex 38.5 0 0
      vertex 38.5 0 8.3
    endloop
  endfacet
  facet normal 0 -1 0
    outer loop
      vertex 28.5 0 5
      vertex 38.5 0 0
      vertex 36.5 0 5
    endloop
  endfacet
  facet normal 1 -0 0
    outer loop
      vertex 28.5 0 8.3
      vertex 28.5 55 5
      vertex 28.5 55 8.3
    endloop
  endfacet
  facet normal 1 0 0
    outer loop
      vertex 28.5 55 5
      vertex 28.5 0 8.3
      vertex 28.5 0 5
    endloop
  endfacet
  facet normal 0 1 -0
    outer loop
      vertex 26.5 2 5
      vertex 12 2 8.3
      vertex 26.5 2 8.3
    endloop
  endfacet
  facet normal 0 1 0
    outer loop
      vertex 12 2 8.3
      vertex 26.5 2 5
      vertex 12 2 5
    endloop
  endfacet
  facet normal -1 0 0
    outer loop
      vertex 10 0 5
      vertex 10 55 8.3
      vertex 10 55 5
    endloop
  endfacet
  facet normal -1 -0 0
    outer loop
      vertex 10 55 8.3
      vertex 10 0 5
      vertex 10 0 8.3
    endloop
  endfacet
  facet normal -0.983607 0.180327 0
    outer loop
      vertex 12.9 -9 0
      vertex 14.55 0 8.3
      vertex 14.55 0 0
    endloop
  endfacet
  facet normal -0.983607 0.180327 0
    outer loop
      vertex 14.55 0 8.3
      vertex 12.9 -9 0
      vertex 12.9 -9 8.3
    endloop
  endfacet
  facet normal 0 -1 0
    outer loop
      vertex 12.9 -9 0
      vertex 18.55 -9 8.3
      vertex 12.9 -9 8.3
    endloop
  endfacet
  facet normal 0 -1 -0
    outer loop
      vertex 18.55 -9 8.3
      vertex 12.9 -9 0
      vertex 18.55 -9 0
    endloop
  endfacet
  facet normal 1 0 0
    outer loop
      vertex 18.55 -8 8.3
      vertex 18.55 -9 8.3
      vertex 18.55 -8 5
    endloop
  endfacet
  facet normal 1 -0 0
    outer loop
      vertex 18.55 -8 5
      vertex 18.55 -2.5 0
      vertex 18.55 -2.5 5
    endloop
  endfacet
  facet normal 1 0 0
    outer loop
      vertex 18.55 -8 5
      vertex 18.55 -9 0
      vertex 18.55 -2.5 0
    endloop
  endfacet
  facet normal 1 0 0
    outer loop
      vertex 18.55 -9 0
      vertex 18.55 -8 5
      vertex 18.55 -9 8.3
    endloop
  endfacet
  facet normal 0 0 1
    outer loop
      vertex 23.95 0 8.3
      vertex 24.6 -8 8.3
      vertex 25.6 -9 8.3
    endloop
  endfacet
  facet normal 0 0 1
    outer loop
      vertex 24.6 -8 8.3
      vertex 23.95 0 8.3
      vertex 22.95 0 8.3
    endloop
  endfacet
  facet normal 0 0 1
    outer loop
      vertex 19.95 -9 8.3
      vertex 24.6 -8 8.3
      vertex 19.95 -8 8.3
    endloop
  endfacet
  facet normal 0 0 1
    outer loop
      vertex 24.6 -8 8.3
      vertex 19.95 -9 8.3
      vertex 25.6 -9 8.3
    endloop
  endfacet
  facet normal -0 0 1
    outer loop
      vertex 14.55 0 8.3
      vertex 13.9 -8 8.3
      vertex 15.55 0 8.3
    endloop
  endfacet
  facet normal 0 -0 1
    outer loop
      vertex 13.9 -8 8.3
      vertex 14.55 0 8.3
      vertex 12.9 -9 8.3
    endloop
  endfacet
  facet normal 0 0 1
    outer loop
      vertex 28.5 55 8.3
      vertex 26.5 44 8.3
      vertex 28.5 0 8.3
    endloop
  endfacet
  facet normal 0 0 1
    outer loop
      vertex 28.5 55 8.3
      vertex 25.8 45.751 8.3
      vertex 26.5 44 8.3
    endloop
  endfacet
  facet normal 0 -0 1
    outer loop
      vertex 25.8 45.751 8.3
      vertex 28.5 55 8.3
      vertex 24.0302 55 8.3
    endloop
  endfacet
  facet normal -0 0 1
    outer loop
      vertex 26.5 2 8.3
      vertex 28.5 0 8.3
      vertex 26.5 44 8.3
    endloop
  endfacet
  facet normal 0 0 1
    outer loop
      vertex 26.5 2 8.3
      vertex 23.95 0 8.3
      vertex 28.5 0 8.3
    endloop
  endfacet
  facet normal 0 0 1
    outer loop
      vertex 26.5 2 8.3
      vertex 22.95 0 8.3
      vertex 23.95 0 8.3
    endloop
  endfacet
  facet normal 0 0 1
    outer loop
      vertex 26.5 2 8.3
      vertex 15.55 0 8.3
      vertex 22.95 0 8.3
    endloop
  endfacet
  facet normal -0 0 1
    outer loop
      vertex 12 2 8.3
      vertex 15.55 0 8.3
      vertex 26.5 2 8.3
    endloop
  endfacet
  facet normal 0 0 1
    outer loop
      vertex 15.55 0 8.3
      vertex 12 2 8.3
      vertex 14.55 0 8.3
    endloop
  endfacet
  facet normal 0 0 1
    outer loop
      vertex 12 2 8.3
      vertex 10 0 8.3
      vertex 14.55 0 8.3
    endloop
  endfacet
  facet normal 0 0 1
    outer loop
      vertex 12 44 8.3
      vertex 10 0 8.3
      vertex 12 2 8.3
    endloop
  endfacet
  facet normal -0 0 1
    outer loop
      vertex 12.7 45.751 8.3
      vertex 26.5 44 8.3
      vertex 25.8 45.751 8.3
    endloop
  endfacet
  facet normal 0 0 1
    outer loop
      vertex 26.5 44 8.3
      vertex 12.7 45.751 8.3
      vertex 12 44 8.3
    endloop
  endfacet
  facet normal -0 0 1
    outer loop
      vertex 13.9 -8 8.3
      vertex 18.55 -9 8.3
      vertex 18.55 -8 8.3
    endloop
  endfacet
  facet normal 0 0 1
    outer loop
      vertex 18.55 -9 8.3
      vertex 13.9 -8 8.3
      vertex 12.9 -9 8.3
    endloop
  endfacet
  facet normal -0 0 1
    outer loop
      vertex 10 55 8.3
      vertex 12.7 45.751 8.3
      vertex 14.4698 55 8.3
    endloop
  endfacet
  facet normal 0 0 1
    outer loop
      vertex 10 0 8.3
      vertex 12 44 8.3
      vertex 10 55 8.3
    endloop
  endfacet
  facet normal 0 0 1
    outer loop
      vertex 12.7 45.751 8.3
      vertex 10 55 8.3
      vertex 12 44 8.3
    endloop
  endfacet
  facet normal 0 1 -0
    outer loop
      vertex 18.55 -8 5
      vertex 13.9 -8 8.3
      vertex 18.55 -8 8.3
    endloop
  endfacet
  facet normal 0 1 0
    outer loop
      vertex 13.9 -8 8.3
      vertex 18.55 -8 5
      vertex 13.9 -8 5
    endloop
  endfacet
  facet normal 0.979386 -0.201998 0
    outer loop
      vertex 13.9 -8 8.3
      vertex 15.55 0 5
      vertex 15.55 0 8.3
    endloop
  endfacet
  facet normal 0.979386 -0.201998 0
    outer loop
      vertex 15.55 0 5
      vertex 13.9 -8 8.3
      vertex 13.9 -8 5
    endloop
  endfacet
  facet normal 0 -1 0
    outer loop
      vertex 15.55 0 5
      vertex 22.95 0 8.3
      vertex 15.55 0 8.3
    endloop
  endfacet
  facet normal 0 -1 -0
    outer loop
      vertex 22.95 0 8.3
      vertex 15.55 0 5
      vertex 22.95 0 5
    endloop
  endfacet
  facet normal -0.979386 -0.201998 0
    outer loop
      vertex 24.6 -8 5
      vertex 22.95 0 8.3
      vertex 22.95 0 5
    endloop
  endfacet
  facet normal -0.979386 -0.201998 0
    outer loop
      vertex 22.95 0 8.3
      vertex 24.6 -8 5
      vertex 24.6 -8 8.3
    endloop
  endfacet
  facet normal 0 1 -0
    outer loop
      vertex 24.6 -8 5
      vertex 19.95 -8 8.3
      vertex 24.6 -8 8.3
    endloop
  endfacet
  facet normal 0 1 0
    outer loop
      vertex 19.95 -8 8.3
      vertex 24.6 -8 5
      vertex 19.95 -8 5
    endloop
  endfacet
  facet normal -1 0 0
    outer loop
      vertex 0 0 0
      vertex 0 55 8.3
      vertex 0 55 0
    endloop
  endfacet
  facet normal -1 -0 0
    outer loop
      vertex 0 55 8.3
      vertex 0 0 0
      vertex 0 0 8.3
    endloop
  endfacet
  facet normal 1 -0 0
    outer loop
      vertex 38.5 0 8.3
      vertex 38.5 55 0
      vertex 38.5 55 8.3
    endloop
  endfacet
  facet normal 1 0 0
    outer loop
      vertex 38.5 55 0
      vertex 38.5 0 8.3
      vertex 38.5 0 0
    endloop
  endfacet
  facet normal -0 0 1
    outer loop
      vertex 2 55 5
      vertex 10 0 5
      vertex 10 55 5
    endloop
  endfacet
  facet normal 0 0 1
    outer loop
      vertex 10 0 5
      vertex 2 55 5
      vertex 2 0 5
    endloop
  endfacet
  facet normal -0 0 1
    outer loop
      vertex 28.5 55 5
      vertex 36.5 0 5
      vertex 36.5 55 5
    endloop
  endfacet
  facet normal 0 0 1
    outer loop
      vertex 36.5 0 5
      vertex 28.5 55 5
      vertex 28.5 0 5
    endloop
  endfacet
  facet normal -0 0 1
    outer loop
      vertex 12 44 5
      vertex 26.5 2 5
      vertex 26.5 44 5
    endloop
  endfacet
  facet normal 0 0 1
    outer loop
      vertex 26.5 2 5
      vertex 12 44 5
      vertex 12 2 5
    endloop
  endfacet
  facet normal 0 -1 0
    outer loop
      vertex 12 44 5
      vertex 26.5 44 8.3
      vertex 12 44 8.3
    endloop
  endfacet
  facet normal 0 -1 -0
    outer loop
      vertex 26.5 44 8.3
      vertex 12 44 5
      vertex 26.5 44 5
    endloop
  endfacet
  facet normal -0 0 1
    outer loop
      vertex 0 55 8.3
      vertex 2 0 8.3
      vertex 2 55 8.3
    endloop
  endfacet
  facet normal 0 0 1
    outer loop
      vertex 2 0 8.3
      vertex 0 55 8.3
      vertex 0 0 8.3
    endloop
  endfacet
  facet normal -0 0 1
    outer loop
      vertex 36.5 55 8.3
      vertex 38.5 0 8.3
      vertex 38.5 55 8.3
    endloop
  endfacet
  facet normal 0 0 1
    outer loop
      vertex 38.5 0 8.3
      vertex 36.5 55 8.3
      vertex 36.5 0 8.3
    endloop
  endfacet
  facet normal 1 -0 0
    outer loop
      vertex 2 0 8.3
      vertex 2 55 5
      vertex 2 55 8.3
    endloop
  endfacet
  facet normal 1 0 0
    outer loop
      vertex 2 55 5
      vertex 2 0 8.3
      vertex 2 0 5
    endloop
  endfacet
  facet normal 1 -0 0
    outer loop
      vertex 12 2 8.3
      vertex 12 44 5
      vertex 12 44 8.3
    endloop
  endfacet
  facet normal 1 0 0
    outer loop
      vertex 12 44 5
      vertex 12 2 8.3
      vertex 12 2 5
    endloop
  endfacet
  facet normal -1 0 0
    outer loop
      vertex 26.5 2 5
      vertex 26.5 44 8.3
      vertex 26.5 44 5
    endloop
  endfacet
  facet normal -1 -0 0
    outer loop
      vertex 26.5 44 8.3
      vertex 26.5 2 5
      vertex 26.5 2 8.3
    endloop
  endfacet
  facet normal -1 0 0
    outer loop
      vertex 36.5 0 5
      vertex 36.5 55 8.3
      vertex 36.5 55 5
    endloop
  endfacet
  facet normal -1 -0 0
    outer loop
      vertex 36.5 55 8.3
      vertex 36.5 0 5
      vertex 36.5 0 8.3
    endloop
  endfacet
  facet normal 0 1 0
    outer loop
      vertex 14.4698 55 8.3
      vertex 10 55 5
      vertex 10 55 8.3
    endloop
  endfacet
  facet normal 0 1 0
    outer loop
      vertex 0 55 0
      vertex 10 55 5
      vertex 14.4698 55 0
    endloop
  endfacet
  facet normal 0 1 -0
    outer loop
      vertex 14.4698 55 0
      vertex 10 55 5
      vertex 14.4698 55 8.3
    endloop
  endfacet
  facet normal 0 1 -0
    outer loop
      vertex 2 55 5
      vertex 0 55 8.3
      vertex 2 55 8.3
    endloop
  endfacet
  facet normal 0 1 0
    outer loop
      vertex 2 55 5
      vertex 0 55 0
      vertex 0 55 8.3
    endloop
  endfacet
  facet normal 0 1 0
    outer loop
      vertex 10 55 5
      vertex 0 55 0
      vertex 2 55 5
    endloop
  endfacet
  facet normal 0 1 0
    outer loop
      vertex 38.5 55 8.3
      vertex 36.5 55 5
      vertex 36.5 55 8.3
    endloop
  endfacet
  facet normal 0 1 0
    outer loop
      vertex 36.5 55 5
      vertex 38.5 55 0
      vertex 28.5 55 5
    endloop
  endfacet
  facet normal 0 1 -0
    outer loop
      vertex 38.5 55 0
      vertex 36.5 55 5
      vertex 38.5 55 8.3
    endloop
  endfacet
  facet normal 0 1 -0
    outer loop
      vertex 28.5 55 5
      vertex 24.0302 55 8.3
      vertex 28.5 55 8.3
    endloop
  endfacet
  facet normal 0 1 0
    outer loop
      vertex 28.5 55 5
      vertex 24.0302 55 0
      vertex 24.0302 55 8.3
    endloop
  endfacet
  facet normal 0 1 0
    outer loop
      vertex 24.0302 55 0
      vertex 28.5 55 5
      vertex 38.5 55 0
    endloop
  endfacet
  facet normal -0.98218 -0.18794 0
    outer loop
      vertex 25.8 45.751 0
      vertex 24.0302 55 8.3
      vertex 24.0302 55 0
    endloop
  endfacet
  facet normal -0.98218 -0.18794 0
    outer loop
      vertex 24.0302 55 8.3
      vertex 25.8 45.751 0
      vertex 25.8 45.751 8.3
    endloop
  endfacet
  facet normal 0.98218 -0.18794 0
    outer loop
      vertex 12.7 45.751 8.3
      vertex 14.4698 55 0
      vertex 14.4698 55 8.3
    endloop
  endfacet
  facet normal 0.98218 -0.18794 0
    outer loop
      vertex 14.4698 55 0
      vertex 12.7 45.751 8.3
      vertex 12.7 45.751 0
    endloop
  endfacet
  facet normal 0 1 -0
    outer loop
      vertex 25.8 45.751 0
      vertex 12.7 45.751 8.3
      vertex 25.8 45.751 8.3
    endloop
  endfacet
  facet normal 0 1 0
    outer loop
      vertex 12.7 45.751 8.3
      vertex 25.8 45.751 0
      vertex 12.7 45.751 0
    endloop
  endfacet
endsolid OpenSCAD_Model
